<svg width="562" height="562" viewBox="0 0 562 562" fill="none" xmlns="http://www.w3.org/2000/svg">
<g clip-path="url(#clip0_1_2)">
<mask id="mask0_1_2" style="mask-type:luminance" maskUnits="userSpaceOnUse" x="0" y="0" width="562" height="562">
<path d="M562 0H0V562H562V0Z" fill="white"/>
</mask>
<g mask="url(#mask0_1_2)">
<path d="M281.01 160.87V98.19L270.54 151.51L281.01 160.87Z" fill="#FCBD18"/>
<path d="M281.01 160.87L257.07 186.05L270.54 151.51L281.01 160.87Z" fill="#EF9821"/>
<path d="M281.01 160.87V230.22L257.07 186.05L281.01 160.87Z" fill="#FAAE18"/>
<path d="M257.07 186.05L234.11 199.81L281.01 230.22L257.07 186.05Z" fill="#EC9622"/>
<path d="M281.01 230.22L257.57 271.4L234.11 199.81L281.01 230.22Z" fill="#FDB822"/>
<path d="M234.1 199.81L205.72 217.08L257.56 271.4L234.1 199.81Z" fill="#06517F"/>
<path d="M205.73 217.08L212.04 269.76L257.57 271.39L205.73 217.07V217.08Z" fill="#0D3B5E"/>
<path d="M205.73 217.08L164.38 151.51L234.11 199.81L205.73 217.08Z" fill="#0A446B"/>
<path d="M164.38 151.51L122.6 187.04L205.73 217.07L164.38 151.5V151.51Z" fill="#0C395B"/>
<path d="M205.73 217.08L160.75 249.64L212.04 269.76L205.73 217.08Z" fill="#0C3151"/>
<path d="M205.73 217.08L127.02 237.79L160.75 249.64L205.73 217.08Z" fill="#0B3D5F"/>
<path d="M122.6 187.05L69.4 232.25L127.02 237.79L205.73 217.08L122.6 187.05Z" fill="#0C3151"/>
<path d="M164.38 151.51L67.3 192.31L122.6 187.05L164.38 151.52V151.51Z" fill="#07466D"/>
<path d="M67.3 192.31L10.16 230.72L69.4 232.25L122.6 187.05L67.3 192.31Z" fill="#0D3B5E"/>
<path d="M281.01 230.22V311.04L257.57 271.39L281.01 230.21V230.22Z" fill="#F49C1E"/>
<path d="M257.57 271.39L260.99 289.81V294.26L281.01 311.03L257.57 271.38V271.39Z" fill="#D97F27"/>
<path d="M260.99 294.27L255.69 351.3L281.01 311.04L260.99 294.27Z" fill="#F1AB25"/>
<path d="M281.01 311.04L271.88 383.55L255.7 351.3L281.02 311.04H281.01Z" fill="#075380"/>
<path d="M271.88 383.55L263.14 463.82L255.69 351.3L271.87 383.55H271.88Z" fill="#044970"/>
<path d="M281.01 160.87V98.19L291.47 151.51L281.01 160.87Z" fill="#F7A11C"/>
<path d="M281.01 160.87L304.93 186.05L291.46 151.51L281 160.87H281.01Z" fill="#DB7C27"/>
<path d="M281.01 160.87V230.22L304.93 186.05L281.01 160.87Z" fill="#E48525"/>
<path d="M304.93 186.05L327.89 199.81L281 230.22L304.92 186.05H304.93Z" fill="#C66328"/>
<path d="M281.01 230.22L304.45 271.4L327.89 199.81L281 230.22H281.01Z" fill="#D57728"/>
<path d="M327.89 199.81L356.27 217.08L304.45 271.4L327.89 199.81Z" fill="#044B76"/>
<path d="M356.27 217.08L349.96 269.76L304.45 271.39L356.27 217.07V217.08Z" fill="#0E3C60"/>
<path d="M356.27 217.08L397.62 151.51L327.89 199.81L356.27 217.08Z" fill="#085380"/>
<path d="M397.62 151.51L439.4 187.04L356.27 217.07L397.62 151.5V151.51Z" fill="#0B4268"/>
<path d="M356.27 217.08L401.25 249.64L349.96 269.76L356.27 217.08Z" fill="#0B3150"/>
<path d="M356.27 217.08L434.98 237.79L401.25 249.64L356.27 217.08Z" fill="#0E3E63"/>
<path d="M439.4 187.05L492.6 232.25L434.98 237.79L356.27 217.08L439.4 187.05Z" fill="#0B3150"/>
<path d="M397.62 151.51L494.71 192.31L439.4 187.05L397.62 151.52V151.51Z" fill="#0C3252"/>
<path d="M494.71 192.31L551.85 230.72L492.6 232.25L439.4 187.05L494.71 192.31Z" fill="#0E3D61"/>
<path d="M281.01 230.22V311.04L304.45 271.39L281.01 230.21V230.22Z" fill="#DF8126"/>
<path d="M304.45 271.39L301.01 289.81V294.26L281.01 311.03L304.45 271.38V271.39Z" fill="#C26128"/>
<path d="M301.01 294.27L306.32 351.3L281 311.04L301 294.27H301.01Z" fill="#C77229"/>
<path d="M281.01 311.04L290.13 383.55L306.33 351.3L281.01 311.04Z" fill="#0C3F63"/>
<path d="M290.12 383.55L298.86 463.82L306.32 351.3L290.12 383.55Z" fill="#09314F"/>
</g>
</g>
<defs>
<clipPath id="clip0_1_2">
<rect width="562" height="562" fill="white"/>
</clipPath>
</defs>
</svg>
